<svg xmlns="http://www.w3.org/2000/svg" viewBox="0 0 1080 378.52"><title>LOGOPRETO.HORIZONTAL</title><g id="LOGO"><path d="M102.46,266.88a5.74,5.74,0,0,0-1.79-2,74.48,74.48,0,0,1-30.25-45.6,5.73,5.73,0,0,0-11.32,1.22,6.18,6.18,0,0,0,.12,1.2,85.94,85.94,0,0,0,34.89,52.57,5.73,5.73,0,0,0,8.35-7.35Zm119.21-52.15a5.71,5.71,0,0,0-5.59,4.51,74.5,74.5,0,0,1-30.31,45.63,5.74,5.74,0,0,0,3.31,10.44,5.59,5.59,0,0,0,3.24-1,85.92,85.92,0,0,0,35-52.61A5.73,5.73,0,0,0,221.67,214.73Z"/><rect x="103.11" y="276.81" width="80.22" height="11.45" rx="5.73"/><rect x="108.89" y="293.99" width="68.71" height="11.45" rx="5.3"/><rect x="114.66" y="311.16" width="57.16" height="11.45" rx="4.84"/><path d="M177.16,240.89a51.65,51.65,0,0,1-85.22-32.32H103.6a40.12,40.12,0,0,0,66,23.64,5.77,5.77,0,1,1,7.59,8.68Z"/><path d="M228,200.62a8,8,0,0,1-8,7.95H103.5a39.81,39.81,0,0,1,65.75-36.25,6.05,6.05,0,0,0,1.78,1.09,5.91,5.91,0,0,0,2.05.38,5.73,5.73,0,0,0,3.8-10,51.26,51.26,0,0,0-85.35,38.36,50.45,50.45,0,0,0,.41,6.43H65.56a8,8,0,0,1-8-7.95c0-1.88.13-3.41.13-3.41a85.24,85.24,0,0,1,170.16,0s0,.38.07,1S228,199.68,228,200.62Z"/><path d="M313.75,173.21a35.28,35.28,0,0,1,11.73,15.64,58.11,58.11,0,0,1,3.89,21.61,58.74,58.74,0,0,1-3.89,21.93,34.5,34.5,0,0,1-11.73,15.45q-7.83,5.73-19.31,5.73h-30.5a3.44,3.44,0,0,1-2.58-1,3.65,3.65,0,0,1-1-2.64V171.05a3.65,3.65,0,0,1,1-2.64,3.44,3.44,0,0,1,2.58-1h30.5Q305.91,167.36,313.75,173.21Zm.9,63.18q7.07-9.91,7.06-25.93a51.68,51.68,0,0,0-3-18,28.15,28.15,0,0,0-9.39-12.93q-6.4-4.86-16.09-4.86H267.88V246.3h25.36Q307.6,246.3,314.65,236.39Z"/><path d="M344.2,180.11a4.29,4.29,0,0,1-1.32-3.39v-1.23a4.2,4.2,0,0,1,1.38-3.39,5.6,5.6,0,0,1,3.76-1.17q4.78,0,4.79,4.56v1.23a4.4,4.4,0,0,1-1.26,3.39,5.16,5.16,0,0,1-3.65,1.17A5.37,5.37,0,0,1,344.2,180.11Zm6.28,72.41a3.68,3.68,0,0,1-5.15,0,3.61,3.61,0,0,1-1-2.64V193.22a3.65,3.65,0,0,1,1-2.65,3.71,3.71,0,0,1,5.15,0,3.69,3.69,0,0,1,1,2.65v56.66A3.65,3.65,0,0,1,350.48,252.52Z"/><path d="M422.36,191.74a3.87,3.87,0,0,1,1,2.71v55.43a3.62,3.62,0,0,1-1,2.64,3.67,3.67,0,0,1-5.14,0,3.62,3.62,0,0,1-1-2.64v-8.26a25.33,25.33,0,0,1-9,9.36,23.72,23.72,0,0,1-13,3.82,25.17,25.17,0,0,1-14.41-4.31,29.37,29.37,0,0,1-10-11.82,38.16,38.16,0,0,1-3.65-16.88A37.28,37.28,0,0,1,369.79,205a29,29,0,0,1,10.11-11.63,26,26,0,0,1,27.33-.62,23.16,23.16,0,0,1,9,9.36v-7.64a3.87,3.87,0,0,1,1-2.71,3.55,3.55,0,0,1,5.14,0ZM406.1,244.52a22.83,22.83,0,0,0,7.77-9.36,31.07,31.07,0,0,0,2.81-13.37,30,30,0,0,0-2.81-13,22.91,22.91,0,0,0-7.77-9.3,19.39,19.39,0,0,0-11.19-3.39,19.6,19.6,0,0,0-11.18,3.33,22.57,22.57,0,0,0-7.78,9.18,30.22,30.22,0,0,0-2.81,13.23,31.65,31.65,0,0,0,2.75,13.37,22.42,22.42,0,0,0,7.72,9.36,20.35,20.35,0,0,0,22.49,0ZM392.76,185a2.25,2.25,0,0,1-.6-1.54,3.45,3.45,0,0,1,.6-1.72l7.3-11.7a4.43,4.43,0,0,1,4.06-2.71,4.09,4.09,0,0,1,2.87,1,3.35,3.35,0,0,1,1,2.84,4.58,4.58,0,0,1-1.2,2.83l-9,9.73a5.37,5.37,0,0,1-3.71,2A1.75,1.75,0,0,1,392.76,185Z"/><path d="M475.05,190.14a3.17,3.17,0,0,1,1.92,3,3.94,3.94,0,0,1-1,2.77,3,3,0,0,1-2.27,1,9.07,9.07,0,0,1-2.34-.62,9.79,9.79,0,0,0-3.28-.61,14,14,0,0,0-8.8,3.51,27.07,27.07,0,0,0-7.17,9.05,24.47,24.47,0,0,0-2.82,11.21v30.42a3.61,3.61,0,0,1-1,2.64,3.68,3.68,0,0,1-5.15,0,3.65,3.65,0,0,1-1-2.64V194.7a3.68,3.68,0,0,1,1-2.65,3.71,3.71,0,0,1,5.15,0,3.64,3.64,0,0,1,1,2.65v10.84a28.29,28.29,0,0,1,8.32-11.64,20.39,20.39,0,0,1,13.1-4.74A9.32,9.32,0,0,1,475.05,190.14Z"/><path d="M487.85,180.11a4.29,4.29,0,0,1-1.31-3.39v-1.23a4.19,4.19,0,0,1,1.37-3.39,5.63,5.63,0,0,1,3.77-1.17q4.79,0,4.78,4.56v1.23a4.43,4.43,0,0,1-1.25,3.39,5.18,5.18,0,0,1-3.65,1.17A5.39,5.39,0,0,1,487.85,180.11Zm6.28,72.41a3.67,3.67,0,0,1-5.14,0,3.62,3.62,0,0,1-1-2.64V193.22a3.66,3.66,0,0,1,1-2.65,3.7,3.7,0,0,1,5.14,0,3.66,3.66,0,0,1,1,2.65v56.66A3.62,3.62,0,0,1,494.13,252.52Z"/><path d="M566.32,238.79a29.73,29.73,0,0,1-10.89,11.76,30.13,30.13,0,0,1-30.86,0,29.57,29.57,0,0,1-10.88-11.76,37.49,37.49,0,0,1,0-33.5,30.07,30.07,0,0,1,10.88-11.82,29.78,29.78,0,0,1,30.86,0,30.24,30.24,0,0,1,10.89,11.82,37.57,37.57,0,0,1,0,33.5Zm-6.22-30a23.23,23.23,0,0,0-8.32-9.3A21.47,21.47,0,0,0,540,196.05a21.18,21.18,0,0,0-11.72,3.39,23.83,23.83,0,0,0-8.32,9.3,28.63,28.63,0,0,0-3,13.3,28.34,28.34,0,0,0,3,13.18,23.83,23.83,0,0,0,8.32,9.3A21.18,21.18,0,0,0,540,247.91a21.76,21.76,0,0,0,11.78-3.33,22.81,22.81,0,0,0,8.32-9.24,31.08,31.08,0,0,0,0-26.6Z"/><path d="M646.81,177.83a8.47,8.47,0,0,1-1.79,5,5.86,5.86,0,0,1-4.9,2.58,8.4,8.4,0,0,1-4.07-1.11,28.86,28.86,0,0,0-12.68-2.83,28.31,28.31,0,0,0-14.59,3.64,24.29,24.29,0,0,0-9.57,10.22,32.73,32.73,0,0,0-3.35,15.08q0,14.53,7.59,22T623.37,240a26.86,26.86,0,0,0,12.68-2.83,9.3,9.3,0,0,1,3.83-1,6.5,6.5,0,0,1,5.26,2.7,8.12,8.12,0,0,1,1.79,5.05,6.92,6.92,0,0,1-.95,3.58,6.4,6.4,0,0,1-2.75,2.46,42.81,42.81,0,0,1-19.86,4.8,45.84,45.84,0,0,1-21.53-5.11,38.65,38.65,0,0,1-15.67-15.09q-5.86-10-5.86-24.14a45.44,45.44,0,0,1,5.56-22.53,40,40,0,0,1,15.37-15.58,43.78,43.78,0,0,1,22.13-5.61,41.52,41.52,0,0,1,19.74,4.81A6.6,6.6,0,0,1,646.81,177.83Z"/><path d="M697.59,188.54a6.3,6.3,0,0,1,2.45,4.93q0,3.81-1.91,5.73a6.23,6.23,0,0,1-4.55,1.9,11.48,11.48,0,0,1-4.06-.86l-1.62-.49a9.3,9.3,0,0,0-2.69-.37,10.44,10.44,0,0,0-6,2,14.35,14.35,0,0,0-4.72,6,22.5,22.5,0,0,0-1.86,9.55v29.19a7.55,7.55,0,0,1-2,5.36,7.23,7.23,0,0,1-10.29,0,7.5,7.5,0,0,1-2-5.36V195.19a7.46,7.46,0,0,1,2-5.35,7.21,7.21,0,0,1,10.29,0,7.51,7.51,0,0,1,2,5.35v1.6a18.39,18.39,0,0,1,7.9-7.69,23.59,23.59,0,0,1,11-2.65A9,9,0,0,1,697.59,188.54Z"/><path d="M710.69,178.32Q709,177,709,173.52v-2.34q0-3.45,1.8-4.81c1.19-.9,3.11-1.35,5.74-1.35q4.19,0,5.86,1.35c1.12.91,1.67,2.51,1.67,4.81v2.34c0,2.38-.57,4-1.73,4.86s-3.13,1.29-5.92,1.29S711.8,179.22,710.69,178.32Zm11,73.1a7.22,7.22,0,0,1-10.28,0,7.51,7.51,0,0,1-2-5.36V195.19a7.47,7.47,0,0,1,2-5.35,7.2,7.2,0,0,1,10.28,0,7.47,7.47,0,0,1,2,5.35v50.87A7.51,7.51,0,0,1,721.69,251.42Z"/><path d="M795.38,188.54a7.48,7.48,0,0,1,2,5.42v52.1a7.55,7.55,0,0,1-2,5.36,6.81,6.81,0,0,1-5.15,2.15,6.68,6.68,0,0,1-5.08-2.09,7.86,7.86,0,0,1-2.1-5.3,24.52,24.52,0,0,1-8.07,6.1,23.81,23.81,0,0,1-10.71,2.52,26.81,26.81,0,0,1-14.95-4.37,30.36,30.36,0,0,1-10.58-12.13,38.65,38.65,0,0,1-3.89-17.61A39.61,39.61,0,0,1,738.68,203a30.08,30.08,0,0,1,10.46-12.19,26.13,26.13,0,0,1,14.66-4.37,27.13,27.13,0,0,1,10.76,2.15,28.3,28.3,0,0,1,8.49,5.48V194a7.51,7.51,0,0,1,2-5.36,6.78,6.78,0,0,1,5.14-2.15A6.91,6.91,0,0,1,795.38,188.54ZM778.75,235.4q4.9-5.84,4.9-14.71t-4.9-14.78a16.43,16.43,0,0,0-25.24,0q-4.9,5.91-4.9,14.78t4.84,14.71a15.6,15.6,0,0,0,12.62,5.85A15.79,15.79,0,0,0,778.75,235.4Z"/><path d="M846.87,241.32a6.64,6.64,0,0,1,1.37,4.37c0,2.22-1.18,4.08-3.53,5.6a14.32,14.32,0,0,1-8,2.28,22.71,22.71,0,0,1-12.5-3.26q-5.09-3.27-5.08-13.86v-34h-5.51a6.4,6.4,0,0,1-4.78-2,6.78,6.78,0,0,1-1.92-4.93,6.41,6.41,0,0,1,1.92-4.74,6.5,6.5,0,0,1,4.78-1.91h5.51V181a7.38,7.38,0,0,1,2.09-5.36,7,7,0,0,1,5.2-2.15,6.68,6.68,0,0,1,5,2.15,7.55,7.55,0,0,1,2,5.36v7.88H842a6.42,6.42,0,0,1,4.79,2,6.83,6.83,0,0,1,1.91,4.93,6.44,6.44,0,0,1-1.91,4.74,6.52,6.52,0,0,1-4.79,1.91h-8.49v33.37a4.82,4.82,0,0,0,1.31,3.76,5.22,5.22,0,0,0,3.59,1.17,10,10,0,0,0,2.64-.49,7,7,0,0,1,2.75-.62A4,4,0,0,1,846.87,241.32Z"/><path d="M862.36,178.32q-1.68-1.35-1.68-4.8v-2.34q0-3.45,1.8-4.81c1.19-.9,3.11-1.35,5.74-1.35q4.18,0,5.86,1.35t1.67,4.81v2.34q0,3.57-1.73,4.86t-5.92,1.29C865.39,179.67,863.47,179.22,862.36,178.32Zm11,73.1a7.23,7.23,0,0,1-10.29,0,7.55,7.55,0,0,1-2-5.36V195.19a7.51,7.51,0,0,1,2-5.35,7.21,7.21,0,0,1,10.29,0,7.46,7.46,0,0,1,2,5.35v50.87A7.5,7.5,0,0,1,873.36,251.42Z"/><path d="M944.05,189.71a6.44,6.44,0,0,1,1.92,4.74,9.75,9.75,0,0,1-1,3.7l-22.37,50.74a7.61,7.61,0,0,1-2.45,3.33,6.53,6.53,0,0,1-3.65,1.35l-1.08.12a6.16,6.16,0,0,1-3.76-1.29,8.41,8.41,0,0,1-2.7-3.51l-22.24-50.74a10,10,0,0,1-.84-3.94,6.28,6.28,0,0,1,2-4.5,6.85,6.85,0,0,1,5-2,7.6,7.6,0,0,1,7,4.68l16.51,38.92,16.39-38.8a8.07,8.07,0,0,1,2.63-3.57,5.54,5.54,0,0,1,3.71-1.11A6.5,6.5,0,0,1,944.05,189.71Z"/><path d="M1013.91,238.36a30.83,30.83,0,0,1-11.78,12.13,33.66,33.66,0,0,1-33,0,31,31,0,0,1-11.72-12.13,38.4,38.4,0,0,1,0-35.35,31.53,31.53,0,0,1,11.72-12.19,33.26,33.26,0,0,1,33,0A31.39,31.39,0,0,1,1013.91,203a38.48,38.48,0,0,1,0,35.35Zm-12.5-28.45a18.48,18.48,0,0,0-6.58-7.33,17.52,17.52,0,0,0-18.3,0,18.41,18.41,0,0,0-6.58,7.33,23.07,23.07,0,0,0-2.45,10.78A22.67,22.67,0,0,0,970,231.4a18.5,18.5,0,0,0,6.58,7.27,17.52,17.52,0,0,0,18.3,0,18.58,18.58,0,0,0,6.58-7.27,22.79,22.79,0,0,0,2.45-10.71A23.2,23.2,0,0,0,1001.41,209.91Z"/></g></svg>