<svg xmlns="http://www.w3.org/2000/svg" xmlns:xlink="http://www.w3.org/1999/xlink" viewBox="0 0 1080 1080"><defs><style>.cls-1{fill:none;}.cls-2{fill:url(#linear-gradient);}.cls-3{fill:url(#linear-gradient-2);}.cls-4{fill:url(#linear-gradient-3);}.cls-5{fill:url(#linear-gradient-4);}.cls-6{fill:url(#linear-gradient-5);}.cls-7{fill:url(#linear-gradient-6);}.cls-8{clip-path:url(#clip-path);}.cls-9{fill:url(#linear-gradient-7);}</style><linearGradient id="linear-gradient" x1="224.95" y1="550.47" x2="825.99" y2="550.47" gradientUnits="userSpaceOnUse"><stop offset="0" stop-color="#ea5297"/><stop offset="1" stop-color="#7e4795"/></linearGradient><linearGradient id="linear-gradient-2" x1="382.13" y1="684.43" x2="668.61" y2="684.43" xlink:href="#linear-gradient"/><linearGradient id="linear-gradient-3" x1="402.76" y1="745.78" x2="648.15" y2="745.78" xlink:href="#linear-gradient"/><linearGradient id="linear-gradient-4" x1="423.39" y1="807.13" x2="627.52" y2="807.13" xlink:href="#linear-gradient"/><linearGradient id="linear-gradient-5" x1="342.25" y1="500.79" x2="653.71" y2="500.79" xlink:href="#linear-gradient"/><linearGradient id="linear-gradient-6" x1="219.6" y1="257.08" x2="828.22" y2="257.08" xlink:href="#linear-gradient"/><clipPath id="clip-path"><path class="cls-1" d="M201.91,885.67a35.26,35.26,0,0,1,11.72,15.64,58.11,58.11,0,0,1,3.89,21.61,58.74,58.74,0,0,1-3.89,21.93,34.48,34.48,0,0,1-11.72,15.45Q194.08,966,182.59,966h-30.5a3.44,3.44,0,0,1-2.57-1,3.62,3.62,0,0,1-1-2.64V883.51a3.62,3.62,0,0,1,1-2.64,3.44,3.44,0,0,1,2.57-1h30.5Q194.08,879.82,201.91,885.67Zm.9,63.18q7-9.92,7.06-25.93a51.68,51.68,0,0,0-3-18A28.15,28.15,0,0,0,197.49,892q-6.41-4.86-16.09-4.87H156v71.68H181.4Q195.76,958.76,202.81,948.85Zm29.54-56.28a4.29,4.29,0,0,1-1.31-3.39V888a4.22,4.22,0,0,1,1.37-3.39,5.63,5.63,0,0,1,3.77-1.17q4.78,0,4.79,4.56v1.23a4.4,4.4,0,0,1-1.26,3.39,5.16,5.16,0,0,1-3.65,1.17A5.41,5.41,0,0,1,232.35,892.57ZM238.63,965a3.67,3.67,0,0,1-5.14,0,3.62,3.62,0,0,1-1-2.64V905.68a3.66,3.66,0,0,1,1-2.65,3.7,3.7,0,0,1,5.14,0,3.66,3.66,0,0,1,1,2.65v56.66A3.62,3.62,0,0,1,238.63,965Zm71.89-60.78a3.87,3.87,0,0,1,1,2.71v55.43a3.62,3.62,0,0,1-1,2.64,3.67,3.67,0,0,1-5.14,0,3.62,3.62,0,0,1-1-2.64v-8.26a25.33,25.33,0,0,1-9,9.36,23.72,23.72,0,0,1-13,3.82A25.15,25.15,0,0,1,267.94,963a29.29,29.29,0,0,1-10.05-11.82,38.16,38.16,0,0,1-3.65-16.88A37.28,37.28,0,0,1,258,917.44a29,29,0,0,1,10.11-11.63,26,26,0,0,1,27.33-.62,23.16,23.16,0,0,1,9,9.36v-7.64a3.87,3.87,0,0,1,1-2.71,3.55,3.55,0,0,1,5.14,0ZM294.25,957a22.85,22.85,0,0,0,7.78-9.36,31.07,31.07,0,0,0,2.81-13.37,30,30,0,0,0-2.81-13,22.93,22.93,0,0,0-7.78-9.3,19.38,19.38,0,0,0-11.18-3.39,19.63,19.63,0,0,0-11.19,3.33,22.55,22.55,0,0,0-7.77,9.18,30.22,30.22,0,0,0-2.81,13.23,31.5,31.5,0,0,0,2.75,13.37,22.35,22.35,0,0,0,7.72,9.36,20.33,20.33,0,0,0,22.48,0Zm-13.33-59.49a2.25,2.25,0,0,1-.6-1.54,3.45,3.45,0,0,1,.6-1.72l7.29-11.7a4.44,4.44,0,0,1,4.07-2.71,4.11,4.11,0,0,1,2.87,1,3.35,3.35,0,0,1,1,2.84,4.58,4.58,0,0,1-1.2,2.83l-9,9.73a5.39,5.39,0,0,1-3.71,2A1.72,1.72,0,0,1,280.92,897.49Zm82.29,5.11a3.18,3.18,0,0,1,1.91,3,4,4,0,0,1-.95,2.77,3,3,0,0,1-2.28,1,9,9,0,0,1-2.33-.62,9.84,9.84,0,0,0-3.29-.61,14,14,0,0,0-8.79,3.51,27.21,27.21,0,0,0-7.18,9.05,24.58,24.58,0,0,0-2.81,11.21v30.42a3.65,3.65,0,0,1-1,2.64,3.68,3.68,0,0,1-5.15,0,3.61,3.61,0,0,1-1-2.64V907.16a3.64,3.64,0,0,1,1-2.65,3.71,3.71,0,0,1,5.15,0,3.68,3.68,0,0,1,1,2.65V918a28.29,28.29,0,0,1,8.32-11.64,20.37,20.37,0,0,1,13.09-4.74A9.36,9.36,0,0,1,363.21,902.6Zm12.8-10a4.29,4.29,0,0,1-1.32-3.39V888a4.2,4.2,0,0,1,1.38-3.39,5.6,5.6,0,0,1,3.76-1.17q4.79,0,4.79,4.56v1.23a4.4,4.4,0,0,1-1.26,3.39,5.14,5.14,0,0,1-3.64,1.17A5.38,5.38,0,0,1,376,892.57ZM382.29,965a3.68,3.68,0,0,1-5.15,0,3.65,3.65,0,0,1-1-2.64V905.68a3.69,3.69,0,0,1,1-2.65,3.71,3.71,0,0,1,5.15,0,3.69,3.69,0,0,1,1,2.65v56.66A3.65,3.65,0,0,1,382.29,965Zm72.18-13.73A29.64,29.64,0,0,1,443.59,963a30.13,30.13,0,0,1-30.86,0,29.59,29.59,0,0,1-10.89-11.76,37.57,37.57,0,0,1,0-33.5,30.09,30.09,0,0,1,10.89-11.82,29.78,29.78,0,0,1,30.86,0,30.14,30.14,0,0,1,10.88,11.82,37.49,37.49,0,0,1,0,33.5Zm-6.22-30a23.14,23.14,0,0,0-8.31-9.3,21.5,21.5,0,0,0-11.78-3.39,21.16,21.16,0,0,0-11.72,3.39,23.83,23.83,0,0,0-8.32,9.3,28.63,28.63,0,0,0-3.05,13.3,28.34,28.34,0,0,0,3.05,13.18,23.83,23.83,0,0,0,8.32,9.3,21.16,21.16,0,0,0,11.72,3.39A21.78,21.78,0,0,0,439.94,957a22.71,22.71,0,0,0,8.31-9.24,31.08,31.08,0,0,0,0-26.6ZM535,890.29a8.53,8.53,0,0,1-1.79,5.05,5.87,5.87,0,0,1-4.91,2.58,8.4,8.4,0,0,1-4.06-1.11A28.9,28.9,0,0,0,511.53,894a28.38,28.38,0,0,0-14.6,3.64,24.33,24.33,0,0,0-9.56,10.22A32.73,32.73,0,0,0,484,922.92q0,14.54,7.59,22.05t19.92,7.51a26.86,26.86,0,0,0,12.68-2.83,9.29,9.29,0,0,1,3.82-1,6.52,6.52,0,0,1,5.27,2.7,8.18,8.18,0,0,1,1.79,5,6.83,6.83,0,0,1-1,3.58,6.29,6.29,0,0,1-2.75,2.46,42.8,42.8,0,0,1-19.85,4.8A45.81,45.81,0,0,1,490,962.15a38.59,38.59,0,0,1-15.67-15.09q-5.86-10-5.86-24.14A45.44,45.44,0,0,1,474,900.39a40,40,0,0,1,15.37-15.58,43.76,43.76,0,0,1,22.13-5.61A41.51,41.51,0,0,1,531.26,884,6.61,6.61,0,0,1,535,890.29ZM585.75,901a6.33,6.33,0,0,1,2.45,4.93q0,3.81-1.91,5.73a6.23,6.23,0,0,1-4.55,1.9,11.57,11.57,0,0,1-4.07-.86c-.23-.08-.77-.24-1.61-.49a9.35,9.35,0,0,0-2.69-.37,10.42,10.42,0,0,0-6,2,14.37,14.37,0,0,0-4.73,6,22.66,22.66,0,0,0-1.85,9.55v29.19a7.55,7.55,0,0,1-2,5.36,7.23,7.23,0,0,1-10.29,0,7.5,7.5,0,0,1-2-5.36V907.65a7.46,7.46,0,0,1,2-5.35,7.21,7.21,0,0,1,10.29,0,7.51,7.51,0,0,1,2,5.35v1.6a18.31,18.31,0,0,1,7.89-7.69,23.66,23.66,0,0,1,11-2.65A9,9,0,0,1,585.75,901Zm13.09-10.22q-1.67-1.35-1.67-4.8v-2.34q0-3.45,1.79-4.81t5.75-1.35q4.18,0,5.86,1.35t1.67,4.81V886q0,3.57-1.73,4.86t-5.92,1.29Q600.53,892.13,598.84,890.78Zm11,73.1a7.23,7.23,0,0,1-10.29,0,7.55,7.55,0,0,1-2-5.36V907.65a7.51,7.51,0,0,1,2-5.35,7.21,7.21,0,0,1,10.29,0,7.46,7.46,0,0,1,2,5.35v50.87A7.5,7.5,0,0,1,609.85,963.88ZM683.53,901a7.44,7.44,0,0,1,2,5.42v52.1a7.51,7.51,0,0,1-2,5.36,6.79,6.79,0,0,1-5.14,2.15,6.7,6.7,0,0,1-5.09-2.09,7.9,7.9,0,0,1-2.09-5.3,24.52,24.52,0,0,1-8.07,6.1,23.81,23.81,0,0,1-10.71,2.52,26.81,26.81,0,0,1-14.95-4.37,30.31,30.31,0,0,1-10.59-12.13A38.78,38.78,0,0,1,623,933.15a39.74,39.74,0,0,1,3.82-17.68,30.18,30.18,0,0,1,10.47-12.19A26.13,26.13,0,0,1,652,898.91a27.15,27.15,0,0,1,10.77,2.15,28.3,28.3,0,0,1,8.49,5.48v-.12a7.51,7.51,0,0,1,2-5.36,6.76,6.76,0,0,1,5.14-2.15A6.89,6.89,0,0,1,683.53,901Zm-16.62,46.86q4.89-5.83,4.9-14.71t-4.9-14.78a16.43,16.43,0,0,0-25.24,0q-4.9,5.91-4.91,14.78t4.85,14.71a15.6,15.6,0,0,0,12.62,5.85A15.8,15.8,0,0,0,666.91,947.86ZM735,953.78a6.59,6.59,0,0,1,1.38,4.37c0,2.22-1.18,4.08-3.53,5.6a14.32,14.32,0,0,1-8,2.28,22.69,22.69,0,0,1-12.5-3.26q-5.08-3.27-5.09-13.86v-34h-5.5a6.4,6.4,0,0,1-4.78-2,6.78,6.78,0,0,1-1.92-4.93,6.41,6.41,0,0,1,1.92-4.74,6.5,6.5,0,0,1,4.78-1.91h5.5v-7.88a7.39,7.39,0,0,1,2.1-5.36,7,7,0,0,1,5.2-2.15,6.64,6.64,0,0,1,5,2.15,7.51,7.51,0,0,1,2,5.36v7.88h8.49a6.4,6.4,0,0,1,4.78,2,6.8,6.8,0,0,1,1.92,4.93A6.41,6.41,0,0,1,735,913a6.5,6.5,0,0,1-4.78,1.91h-8.49v33.37a4.78,4.78,0,0,0,1.31,3.76,5.22,5.22,0,0,0,3.59,1.17,9.91,9.91,0,0,0,2.63-.49,7,7,0,0,1,2.75-.62A3.93,3.93,0,0,1,735,953.78Zm15.49-63q-1.66-1.35-1.67-4.8v-2.34q0-3.45,1.79-4.81t5.74-1.35c2.8,0,4.75.45,5.87,1.35s1.67,2.51,1.67,4.81V886q0,3.57-1.73,4.86t-5.93,1.29Q752.19,892.13,750.51,890.78Zm11,73.1a7.23,7.23,0,0,1-10.29,0,7.5,7.5,0,0,1-2-5.36V907.65a7.46,7.46,0,0,1,2-5.35,7.21,7.21,0,0,1,10.29,0,7.51,7.51,0,0,1,2,5.35v50.87A7.55,7.55,0,0,1,761.52,963.88Zm70.69-61.71a6.47,6.47,0,0,1,1.91,4.74,9.9,9.9,0,0,1-1,3.7L810.8,961.35a7.69,7.69,0,0,1-2.45,3.33A6.56,6.56,0,0,1,804.7,966l-1.08.12a6.19,6.19,0,0,1-3.77-1.29,8.48,8.48,0,0,1-2.69-3.51l-22.25-50.74a10.14,10.14,0,0,1-.83-3.94,6.24,6.24,0,0,1,2-4.5,6.83,6.83,0,0,1,5-2,7.6,7.6,0,0,1,7.06,4.68l16.51,38.92,16.38-38.8a8.09,8.09,0,0,1,2.64-3.57,5.52,5.52,0,0,1,3.7-1.11A6.52,6.52,0,0,1,832.21,902.17Zm69.86,48.65A30.86,30.86,0,0,1,890.28,963a33.64,33.64,0,0,1-32.95,0,30.89,30.89,0,0,1-11.72-12.13,38.4,38.4,0,0,1,0-35.35,31.46,31.46,0,0,1,11.72-12.19,33.24,33.24,0,0,1,32.95,0,31.42,31.42,0,0,1,11.79,12.19,38.48,38.48,0,0,1,0,35.35Zm-12.5-28.45A18.48,18.48,0,0,0,883,915a17.52,17.52,0,0,0-18.3,0,18.33,18.33,0,0,0-6.58,7.33,23.08,23.08,0,0,0-2.46,10.78,22.68,22.68,0,0,0,2.46,10.71,18.43,18.43,0,0,0,6.58,7.27,17.52,17.52,0,0,0,18.3,0,18.58,18.58,0,0,0,6.58-7.27A22.79,22.79,0,0,0,892,933.15,23.2,23.2,0,0,0,889.57,922.37Z"/></clipPath><linearGradient id="linear-gradient-7" x1="98.52" y1="487.88" x2="1008.6" y2="487.88" xlink:href="#linear-gradient"/></defs><title>LOGOMIX.VERTICAL</title><g id="LOGO"><path class="cls-2" d="M379.82,628.54a20.39,20.39,0,0,0-6.41-7.3,266,266,0,0,1-108-162.82A20.45,20.45,0,0,0,225,462.76a21.23,21.23,0,0,0,.45,4.3A306.88,306.88,0,0,0,350,654.8c13.53,9.45,32.12-.32,32.12-16.82A20.36,20.36,0,0,0,379.82,628.54ZM805.53,442.31a20.39,20.39,0,0,0-20,16.1,265.91,265.91,0,0,1-108.2,163,20.49,20.49,0,0,0,11.8,37.27,20,20,0,0,0,11.56-3.69A306.87,306.87,0,0,0,825.53,467.05,20.47,20.47,0,0,0,805.53,442.31Z"/><rect class="cls-3" x="382.13" y="663.98" width="286.49" height="40.9" rx="20.45"/><rect class="cls-4" x="402.76" y="725.33" width="245.39" height="40.9" rx="18.93"/><rect class="cls-5" x="423.39" y="786.68" width="204.13" height="40.9" rx="17.27"/><path class="cls-6" d="M646.59,535.72A184.46,184.46,0,0,1,342.25,420.31h41.63a143.28,143.28,0,0,0,235.58,84.43,20.67,20.67,0,0,1,13.64-5.18C652.16,499.56,660.94,523.17,646.59,535.72Z"/><path class="cls-7" d="M828.22,391.89a28.5,28.5,0,0,1-28.42,28.42H383.54a142.17,142.17,0,0,1,234.8-129.47,21.11,21.11,0,0,0,6.35,3.88,20.31,20.31,0,0,0,7.31,1.36c18.8,0,27.6-23.21,13.56-35.73A182.34,182.34,0,0,0,523.79,214c-100.89,0-183.19,82.46-183,183.35a185.19,185.19,0,0,0,1.46,23H248a28.51,28.51,0,0,1-28.42-28.42c0-6.69.47-12.16.47-12.16C229.63,220.22,362,93.84,523.9,93.84S818.18,220.22,827.74,379.73c0,0,.12,1.36.24,3.57S828.22,388.54,828.22,391.89Z"/><g class="cls-8"><rect class="cls-9" x="98.52" y="-197.56" width="910.08" height="1370.88"/></g></g></svg>