<svg xmlns="http://www.w3.org/2000/svg" viewBox="0 0 1080 1080"><defs><style>.cls-1{fill:#fff;}</style></defs><title>LOGOBRANCO.VERTICAL</title><g id="LOGO"><path class="cls-1" d="M391.85,628.54a20.39,20.39,0,0,0-6.41-7.3,266,266,0,0,1-108-162.82A20.45,20.45,0,0,0,237,462.76a21.23,21.23,0,0,0,.45,4.3A306.88,306.88,0,0,0,362,654.8c13.53,9.45,32.12-.32,32.12-16.82A20.36,20.36,0,0,0,391.85,628.54ZM817.56,442.31a20.39,20.39,0,0,0-20,16.1,265.91,265.91,0,0,1-108.2,163,20.49,20.49,0,0,0,11.8,37.27,20,20,0,0,0,11.56-3.69A306.87,306.87,0,0,0,837.56,467.05,20.47,20.47,0,0,0,817.56,442.31Z"/><rect class="cls-1" x="394.16" y="663.98" width="286.49" height="40.9" rx="20.45"/><rect class="cls-1" x="414.79" y="725.33" width="245.39" height="40.9" rx="18.93"/><rect class="cls-1" x="435.42" y="786.68" width="204.13" height="40.9" rx="17.27"/><path class="cls-1" d="M658.62,535.72A184.46,184.46,0,0,1,354.28,420.31H395.9a143.29,143.29,0,0,0,235.59,84.43,20.67,20.67,0,0,1,13.64-5.18C664.19,499.56,673,523.17,658.62,535.72Z"/><path class="cls-1" d="M840.25,391.89a28.5,28.5,0,0,1-28.42,28.42H395.57a142.17,142.17,0,0,1,234.8-129.47,21.11,21.11,0,0,0,6.35,3.88,20.31,20.31,0,0,0,7.31,1.36c18.8,0,27.6-23.21,13.56-35.73A182.34,182.34,0,0,0,535.82,214c-100.89,0-183.19,82.46-183,183.35a185.19,185.19,0,0,0,1.46,23H260.05a28.51,28.51,0,0,1-28.42-28.42c0-6.69.47-12.16.47-12.16C241.66,220.22,374,93.84,535.93,93.84S830.21,220.22,839.77,379.73c0,0,.12,1.36.24,3.57S840.25,388.54,840.25,391.89Z"/><path class="cls-1" d="M213.94,885.67a35.26,35.26,0,0,1,11.72,15.64,58.11,58.11,0,0,1,3.89,21.61,58.74,58.74,0,0,1-3.89,21.93,34.48,34.48,0,0,1-11.72,15.45Q206.11,966,194.63,966H164.12a3.44,3.44,0,0,1-2.57-1,3.61,3.61,0,0,1-1-2.64V883.51a3.61,3.61,0,0,1,1-2.64,3.44,3.44,0,0,1,2.57-1h30.51Q206.11,879.82,213.94,885.67Zm.9,63.18q7-9.92,7.06-25.93a51.68,51.68,0,0,0-3-18A28.15,28.15,0,0,0,209.52,892q-6.41-4.86-16.09-4.87H168.07v71.68h25.36Q207.79,958.76,214.84,948.85Z"/><path class="cls-1" d="M244.38,892.57a4.29,4.29,0,0,1-1.31-3.39V888a4.22,4.22,0,0,1,1.37-3.39,5.65,5.65,0,0,1,3.77-1.17q4.78,0,4.79,4.56v1.23a4.4,4.4,0,0,1-1.26,3.39,5.16,5.16,0,0,1-3.65,1.17A5.41,5.41,0,0,1,244.38,892.57ZM250.66,965a3.67,3.67,0,0,1-5.14,0,3.62,3.62,0,0,1-1-2.64V905.68a3.66,3.66,0,0,1,1-2.65,3.7,3.7,0,0,1,5.14,0,3.66,3.66,0,0,1,1,2.65v56.66A3.62,3.62,0,0,1,250.66,965Z"/><path class="cls-1" d="M322.55,904.2a3.87,3.87,0,0,1,1,2.71v55.43a3.62,3.62,0,0,1-1,2.64,3.67,3.67,0,0,1-5.14,0,3.62,3.62,0,0,1-1-2.64v-8.26a25.33,25.33,0,0,1-9,9.36,23.72,23.72,0,0,1-13,3.82A25.15,25.15,0,0,1,280,963a29.29,29.29,0,0,1-10.05-11.82,38.16,38.16,0,0,1-3.65-16.88A37.28,37.28,0,0,1,270,917.44a29,29,0,0,1,10.11-11.63,26,26,0,0,1,27.33-.62,23.16,23.16,0,0,1,9,9.36v-7.64a3.87,3.87,0,0,1,1-2.71,3.55,3.55,0,0,1,5.14,0ZM306.28,957a22.85,22.85,0,0,0,7.78-9.36,31.07,31.07,0,0,0,2.81-13.37,30,30,0,0,0-2.81-13,22.93,22.93,0,0,0-7.78-9.3,19.38,19.38,0,0,0-11.18-3.39,19.63,19.63,0,0,0-11.19,3.33,22.55,22.55,0,0,0-7.77,9.18,30.22,30.22,0,0,0-2.81,13.23,31.5,31.5,0,0,0,2.75,13.37,22.4,22.4,0,0,0,7.71,9.36,19.58,19.58,0,0,0,11.31,3.39A19.38,19.38,0,0,0,306.28,957ZM293,897.49a2.25,2.25,0,0,1-.6-1.54,3.45,3.45,0,0,1,.6-1.72l7.29-11.7a4.44,4.44,0,0,1,4.07-2.71,4.11,4.11,0,0,1,2.87,1,3.38,3.38,0,0,1,1,2.84,4.58,4.58,0,0,1-1.2,2.83l-9,9.73a5.39,5.39,0,0,1-3.71,2A1.72,1.72,0,0,1,293,897.49Z"/><path class="cls-1" d="M375.24,902.6a3.18,3.18,0,0,1,1.91,3,4,4,0,0,1-.95,2.77,3,3,0,0,1-2.28,1,9,9,0,0,1-2.33-.62,9.84,9.84,0,0,0-3.29-.61,14,14,0,0,0-8.79,3.51,27.21,27.21,0,0,0-7.18,9.05,24.58,24.58,0,0,0-2.81,11.21v30.42a3.65,3.65,0,0,1-1,2.64,3.68,3.68,0,0,1-5.15,0,3.61,3.61,0,0,1-1-2.64V907.16a3.64,3.64,0,0,1,1-2.65,3.71,3.71,0,0,1,5.15,0,3.68,3.68,0,0,1,1,2.65V918a28.29,28.29,0,0,1,8.32-11.64,20.37,20.37,0,0,1,13.09-4.74A9.36,9.36,0,0,1,375.24,902.6Z"/><path class="cls-1" d="M388,892.57a4.29,4.29,0,0,1-1.32-3.39V888a4.2,4.2,0,0,1,1.38-3.39,5.61,5.61,0,0,1,3.77-1.17c3.18,0,4.78,1.52,4.78,4.56v1.23a4.4,4.4,0,0,1-1.26,3.39,5.14,5.14,0,0,1-3.64,1.17A5.38,5.38,0,0,1,388,892.57ZM394.32,965a3.68,3.68,0,0,1-5.15,0,3.65,3.65,0,0,1-1-2.64V905.68a3.69,3.69,0,0,1,1-2.65,3.71,3.71,0,0,1,5.15,0,3.69,3.69,0,0,1,1,2.65v56.66A3.65,3.65,0,0,1,394.32,965Z"/><path class="cls-1" d="M466.5,951.25A29.64,29.64,0,0,1,455.62,963a30.13,30.13,0,0,1-30.86,0,29.59,29.59,0,0,1-10.89-11.76,37.57,37.57,0,0,1,0-33.5,30.09,30.09,0,0,1,10.89-11.82,29.78,29.78,0,0,1,30.86,0,30.14,30.14,0,0,1,10.88,11.82,37.49,37.49,0,0,1,0,33.5Zm-6.22-30a23.14,23.14,0,0,0-8.31-9.3,21.5,21.5,0,0,0-11.78-3.39,21.21,21.21,0,0,0-11.73,3.39,23.89,23.89,0,0,0-8.31,9.3,28.63,28.63,0,0,0-3,13.3,28.34,28.34,0,0,0,3,13.18,23.89,23.89,0,0,0,8.31,9.3,21.21,21.21,0,0,0,11.73,3.39A21.78,21.78,0,0,0,452,957a22.71,22.71,0,0,0,8.31-9.24,31.08,31.08,0,0,0,0-26.6Z"/><path class="cls-1" d="M547,890.29a8.53,8.53,0,0,1-1.79,5.05,5.88,5.88,0,0,1-4.91,2.58,8.4,8.4,0,0,1-4.06-1.11A28.9,28.9,0,0,0,523.56,894a28.35,28.35,0,0,0-14.6,3.64,24.42,24.42,0,0,0-9.57,10.22,32.85,32.85,0,0,0-3.34,15.08q0,14.54,7.59,22.05t19.92,7.51a26.86,26.86,0,0,0,12.68-2.83,9.29,9.29,0,0,1,3.82-1,6.52,6.52,0,0,1,5.27,2.7,8.18,8.18,0,0,1,1.79,5,6.83,6.83,0,0,1-1,3.58,6.29,6.29,0,0,1-2.75,2.46,42.8,42.8,0,0,1-19.85,4.8A45.81,45.81,0,0,1,502,962.15a38.59,38.59,0,0,1-15.67-15.09q-5.87-10-5.86-24.14a45.44,45.44,0,0,1,5.56-22.53,40,40,0,0,1,15.37-15.58,43.76,43.76,0,0,1,22.13-5.61A41.51,41.51,0,0,1,543.29,884,6.61,6.61,0,0,1,547,890.29Z"/><path class="cls-1" d="M597.78,901a6.33,6.33,0,0,1,2.45,4.93q0,3.81-1.91,5.73a6.23,6.23,0,0,1-4.55,1.9,11.48,11.48,0,0,1-4.06-.86l-1.62-.49a9.35,9.35,0,0,0-2.69-.37,10.42,10.42,0,0,0-6,2,14.37,14.37,0,0,0-4.73,6,22.66,22.66,0,0,0-1.85,9.55v29.19a7.55,7.55,0,0,1-2,5.36,7.23,7.23,0,0,1-10.29,0,7.5,7.5,0,0,1-2-5.36V907.65a7.46,7.46,0,0,1,2-5.35,7.21,7.21,0,0,1,10.29,0,7.51,7.51,0,0,1,2,5.35v1.6a18.31,18.31,0,0,1,7.89-7.69,23.66,23.66,0,0,1,11-2.65A9,9,0,0,1,597.78,901Z"/><path class="cls-1" d="M610.88,890.78q-1.68-1.35-1.68-4.8v-2.34q0-3.45,1.79-4.81t5.75-1.35q4.18,0,5.86,1.35t1.67,4.81V886q0,3.57-1.73,4.86t-5.92,1.29Q612.54,892.13,610.88,890.78Zm11,73.1a7.23,7.23,0,0,1-10.29,0,7.55,7.55,0,0,1-2-5.36V907.65a7.51,7.51,0,0,1,2-5.35,7.21,7.21,0,0,1,10.29,0,7.51,7.51,0,0,1,2,5.35v50.87A7.55,7.55,0,0,1,621.88,963.88Z"/><path class="cls-1" d="M695.56,901a7.44,7.44,0,0,1,2,5.42v52.1a7.51,7.51,0,0,1-2,5.36,6.78,6.78,0,0,1-5.14,2.15,6.7,6.7,0,0,1-5.09-2.09,7.9,7.9,0,0,1-2.09-5.3,24.52,24.52,0,0,1-8.07,6.1,23.81,23.81,0,0,1-10.71,2.52,26.79,26.79,0,0,1-15-4.37,30.31,30.31,0,0,1-10.59-12.13A38.78,38.78,0,0,1,635,933.15a39.61,39.61,0,0,1,3.83-17.68,30,30,0,0,1,10.46-12.19A26.13,26.13,0,0,1,664,898.91a27.15,27.15,0,0,1,10.77,2.15,28.3,28.3,0,0,1,8.49,5.48v-.12a7.51,7.51,0,0,1,2-5.36,6.76,6.76,0,0,1,5.14-2.15A6.87,6.87,0,0,1,695.56,901Zm-16.62,46.86q4.89-5.83,4.9-14.71t-4.9-14.78a15.74,15.74,0,0,0-12.68-5.91,15.57,15.57,0,0,0-12.56,5.91q-4.91,5.91-4.91,14.78t4.85,14.71a15.6,15.6,0,0,0,12.62,5.85A15.8,15.8,0,0,0,678.94,947.86Z"/><path class="cls-1" d="M747.05,953.78a6.59,6.59,0,0,1,1.38,4.37c0,2.22-1.18,4.08-3.53,5.6A14.34,14.34,0,0,1,737,966a22.69,22.69,0,0,1-12.5-3.26q-5.09-3.27-5.09-13.86v-34h-5.5a6.4,6.4,0,0,1-4.78-2,6.78,6.78,0,0,1-1.92-4.93,6.41,6.41,0,0,1,1.92-4.74,6.5,6.5,0,0,1,4.78-1.91h5.5v-7.88a7.39,7.39,0,0,1,2.1-5.36,7,7,0,0,1,5.2-2.15,6.64,6.64,0,0,1,5,2.15,7.51,7.51,0,0,1,2,5.36v7.88h8.49a6.4,6.4,0,0,1,4.78,2,6.8,6.8,0,0,1,1.92,4.93A6.41,6.41,0,0,1,747,913a6.5,6.5,0,0,1-4.78,1.91h-8.49v33.37a4.78,4.78,0,0,0,1.31,3.76,5.22,5.22,0,0,0,3.59,1.17,9.91,9.91,0,0,0,2.63-.49,7,7,0,0,1,2.75-.62A4,4,0,0,1,747.05,953.78Z"/><path class="cls-1" d="M762.54,890.78q-1.66-1.35-1.67-4.8v-2.34q0-3.45,1.79-4.81t5.74-1.35c2.8,0,4.75.45,5.87,1.35s1.67,2.51,1.67,4.81V886q0,3.57-1.73,4.86c-1.16.86-3.14,1.29-5.92,1.29S763.66,891.68,762.54,890.78Zm11,73.1a7.23,7.23,0,0,1-10.29,0,7.5,7.5,0,0,1-2-5.36V907.65a7.46,7.46,0,0,1,2-5.35,7.21,7.21,0,0,1,10.29,0,7.51,7.51,0,0,1,2,5.35v50.87A7.55,7.55,0,0,1,773.55,963.88Z"/><path class="cls-1" d="M844.24,902.17a6.47,6.47,0,0,1,1.91,4.74,9.9,9.9,0,0,1-.95,3.7l-22.37,50.74a7.69,7.69,0,0,1-2.45,3.33,6.56,6.56,0,0,1-3.65,1.35l-1.08.12a6.19,6.19,0,0,1-3.77-1.29,8.48,8.48,0,0,1-2.69-3.51l-22.25-50.74a10,10,0,0,1-.83-3.94,6.24,6.24,0,0,1,2-4.5,6.83,6.83,0,0,1,5-2,7.6,7.6,0,0,1,4.19,1.23,7.51,7.51,0,0,1,2.87,3.45l16.51,38.92,16.39-38.8a8,8,0,0,1,2.63-3.57,5.53,5.53,0,0,1,3.71-1.11A6.51,6.51,0,0,1,844.24,902.17Z"/><path class="cls-1" d="M914.1,950.82A30.93,30.93,0,0,1,902.31,963a33.64,33.64,0,0,1-32.95,0,30.89,30.89,0,0,1-11.72-12.13,38.4,38.4,0,0,1,0-35.35,31.46,31.46,0,0,1,11.72-12.19,33.24,33.24,0,0,1,32.95,0,31.49,31.49,0,0,1,11.79,12.19,38.48,38.48,0,0,1,0,35.35Zm-12.5-28.45A18.48,18.48,0,0,0,895,915a17.53,17.53,0,0,0-18.31,0,18.38,18.38,0,0,0-6.57,7.33,23.08,23.08,0,0,0-2.46,10.78,22.68,22.68,0,0,0,2.46,10.71,18.48,18.48,0,0,0,6.57,7.27,17.53,17.53,0,0,0,18.31,0,18.58,18.58,0,0,0,6.58-7.27,22.79,22.79,0,0,0,2.45-10.71A23.2,23.2,0,0,0,901.6,922.37Z"/></g></svg>